<svg width="48" height="48" viewBox="0 0 48 48" fill="none" xmlns="http://www.w3.org/2000/svg">
<g clip-path="url(#clip0_178_2240)">
<path fill-rule="evenodd" clip-rule="evenodd" d="M27 23.5C27 25.16 25.66 26.5 24 26.5C22.34 26.5 21 25.16 21 23.5V17.5C21 15.84 22.34 14.5 24 14.5C25.66 14.5 27 15.84 27 17.5V23.5ZM24 28.5C26.76 28.5 29 26.26 29 23.5H31C31 27.03 28.39 29.93 25 30.42V33.5H23V30.42C19.61 29.93 17 27.03 17 23.5H19C19 26.26 21.24 28.5 24 28.5Z" fill="#49454F"/>
</g>
<defs>
<clipPath id="clip0_178_2240">
<rect x="4" y="4" width="40" height="40" rx="20" fill="white"/>
</clipPath>
</defs>
</svg>
