<svg width="26" height="23" viewBox="0 0 26 23" fill="none" xmlns="http://www.w3.org/2000/svg">
<path fill-rule="evenodd" clip-rule="evenodd" d="M1.90345 0.624074C1.54589 0.466408 1.12924 0.531471 0.83677 0.790647C0.544299 1.04982 0.429595 1.45562 0.54311 1.82955L3.47682 11.4936L0.54311 21.1576C0.429595 21.5315 0.544299 21.9373 0.83677 22.1965C1.12924 22.4557 1.54589 22.5207 1.90345 22.3631L24.4664 12.4141C24.5018 12.399 24.5362 12.382 24.5695 12.3631C24.6797 12.3005 24.7748 12.2188 24.8519 12.1238C24.9292 12.0287 24.9896 11.9187 25.0281 11.7977C25.0592 11.7005 25.0756 11.598 25.0755 11.4936C25.0756 11.3891 25.0592 11.2866 25.0281 11.1894C24.9895 11.0684 24.9291 10.9583 24.8518 10.8632C24.7748 10.7682 24.6797 10.6866 24.5695 10.6241C24.5362 10.6051 24.5017 10.5881 24.4663 10.573L1.90345 0.624074ZM19.329 10.4936L3.08961 3.3329L5.26338 10.4936H19.329ZM19.329 12.4936H5.26338L3.08961 19.6542L19.329 12.4936Z" fill="black"/>
</svg>
