<svg width="291" height="38" viewBox="0 0 291 38" fill="none" xmlns="http://www.w3.org/2000/svg">
<path d="M0.223328 4.92H8.14333V24.192H18.3953V30H0.223328V4.92ZM39.6796 9.76L34.3996 26.7C33.373 29.956 32.449 32.3173 31.6276 33.784C30.8063 35.28 29.985 36.3213 29.1636 36.908C28.6943 37.2307 27.9463 37.48 26.9196 37.656C25.9223 37.832 24.837 37.92 23.6636 37.92C21.9036 37.92 20.4956 37.7587 19.4396 37.436C19.4103 36.732 19.4396 35.8667 19.5276 34.84C19.6156 33.8427 19.733 32.992 19.8796 32.288C21.1116 32.3467 22.3143 32.376 23.4876 32.376C24.3676 32.376 25.0276 32.3613 25.4676 32.332C25.9076 31.4813 26.3183 30.5867 26.6996 29.648L23.6636 29.472L16.8876 9.76H24.8516L28.3716 23.928L28.4156 24.764H28.5476L31.7156 9.76H39.6796ZM58.4511 29.384C56.0751 30.176 53.4205 30.572 50.4871 30.572C47.2018 30.572 44.7378 29.7507 43.0951 28.108C41.4818 26.436 40.6751 23.84 40.6751 20.32C40.6751 18.5893 40.9098 16.888 41.3791 15.216C41.8485 13.5147 42.3471 12.3707 42.8751 11.784C43.4911 11.1093 44.6938 10.5373 46.4831 10.068C48.3018 9.59867 50.1791 9.364 52.1151 9.364C54.1391 9.364 56.1778 9.54 58.2311 9.892C58.1725 10.6253 58.0698 11.4907 57.9231 12.488C57.8058 13.456 57.6738 14.3213 57.5271 15.084C55.7085 14.9667 53.9925 14.908 52.3791 14.908C50.7951 14.908 49.7831 14.996 49.3431 15.172C49.1085 15.26 48.8885 15.8613 48.6831 16.976C48.5071 18.0907 48.4191 19.132 48.4191 20.1C48.4191 21.3907 48.5951 22.388 48.9471 23.092C49.3285 23.7667 49.9151 24.236 50.7071 24.5C51.4991 24.764 52.5698 24.896 53.9191 24.896C54.5058 24.896 55.7965 24.8373 57.7911 24.72L58.4511 29.384ZM73.2499 24.72C73.9833 24.72 75.3473 24.6467 77.3419 24.5C77.6059 24.5 78.0899 24.4707 78.7939 24.412L79.4539 28.944C77.1953 30 74.2619 30.528 70.6539 30.528C67.2806 30.528 64.6846 29.6773 62.8659 27.976C61.0766 26.2747 60.1819 23.708 60.1819 20.276C60.1819 18.516 60.4019 16.8147 60.8419 15.172C61.3113 13.5293 61.8393 12.3853 62.4259 11.74C63.0419 11.0947 64.1859 10.5373 65.8579 10.068C67.5299 9.59867 69.1873 9.364 70.8299 9.364C73.4699 9.364 75.4499 9.83333 76.7699 10.772C78.0899 11.7107 78.9553 13.016 79.3659 14.688C79.7766 16.3307 79.9819 18.5453 79.9819 21.332C77.9873 21.4493 76.0366 21.508 74.1299 21.508H67.8819C67.8819 22.4467 68.0726 23.1507 68.4539 23.62C68.8646 24.0893 69.4366 24.3973 70.1699 24.544C70.9033 24.6613 71.9299 24.72 73.2499 24.72ZM68.3219 14.6C68.1459 14.688 68.0139 15.0693 67.9259 15.744C67.8379 16.4187 67.7793 17.1813 67.7499 18.032H70.0379C71.4166 18.032 72.4139 18.0173 73.0299 17.988C73.0299 16.58 72.8246 15.5827 72.4139 14.996C72.0326 14.4093 71.3579 14.116 70.3899 14.116C69.5979 14.116 68.9086 14.2773 68.3219 14.6ZM66.8699 5.756C67.5446 5.02267 68.5713 4.11333 69.9499 3.028C71.3286 1.94267 72.7073 0.930665 74.0859 -0.0080018L76.4179 3.424C75.4793 4.06933 74.2326 4.876 72.6779 5.844C71.1233 6.812 69.7739 7.63333 68.6299 8.308L66.8699 5.756ZM94.9062 24.72C95.6395 24.72 97.0035 24.6467 98.9982 24.5C99.2622 24.5 99.7462 24.4707 100.45 24.412L101.11 28.944C98.8515 30 95.9182 30.528 92.3102 30.528C88.9368 30.528 86.3408 29.6773 84.5222 27.976C82.7328 26.2747 81.8382 23.708 81.8382 20.276C81.8382 18.516 82.0582 16.8147 82.4982 15.172C82.9675 13.5293 83.4955 12.3853 84.0822 11.74C84.6982 11.0947 85.8422 10.5373 87.5142 10.068C89.1862 9.59867 90.8435 9.364 92.4862 9.364C95.1262 9.364 97.1062 9.83333 98.4262 10.772C99.7462 11.7107 100.612 13.016 101.022 14.688C101.433 16.3307 101.638 18.5453 101.638 21.332C99.6435 21.4493 97.6928 21.508 95.7862 21.508H89.5382C89.5382 22.4467 89.7288 23.1507 90.1102 23.62C90.5208 24.0893 91.0928 24.3973 91.8262 24.544C92.5595 24.6613 93.5862 24.72 94.9062 24.72ZM89.9782 14.6C89.8022 14.688 89.6702 15.0693 89.5822 15.744C89.4942 16.4187 89.4355 17.1813 89.4062 18.032H91.6942C93.0728 18.032 94.0702 18.0173 94.6862 17.988C94.6862 16.58 94.4808 15.5827 94.0702 14.996C93.6888 14.4093 93.0142 14.116 92.0462 14.116C91.2542 14.116 90.5648 14.2773 89.9782 14.6Z" fill="#125DEE"/>
<path d="M125.82 24.5H118.516L117.196 30H109.1L117.196 4.92H127.536L135.28 30H127.14L125.82 24.5ZM122.124 10.332L119.528 19.616H124.764L122.3 10.332H122.124ZM137.38 4.92H145.3V24.192H155.552V30H137.38V4.92ZM179.531 24.5H172.227L170.907 30H162.811L170.907 4.92H181.247L188.991 30H180.851L179.531 24.5ZM175.835 10.332L173.239 19.616H178.475L176.011 10.332H175.835ZM222.419 11.168C222.888 11.872 223.123 14.6 223.123 19.352V30H215.599V20.1V17.724C215.599 16.6387 215.496 15.9933 215.291 15.788C215.056 15.5533 214.557 15.436 213.795 15.436L213.267 15.48C212.357 15.5387 211.492 15.744 210.671 16.096C210.7 16.712 210.715 17.7973 210.715 19.352V30H203.191V20.1V17.46C203.191 16.5507 203.088 15.9933 202.883 15.788C202.648 15.5533 202.149 15.436 201.387 15.436L200.859 15.48C200.037 15.5093 199.187 15.7 198.307 16.052V30H190.783V9.76H196.899L197.691 13.06C198.659 11.7693 199.773 10.8307 201.035 10.244C202.296 9.628 203.572 9.32 204.863 9.32C205.948 9.32 206.975 9.48133 207.943 9.804C208.94 10.1267 209.629 10.5813 210.011 11.168C210.187 11.432 210.333 11.916 210.451 12.62C211.389 11.476 212.46 10.64 213.663 10.112C214.865 9.584 216.068 9.32 217.271 9.32C218.356 9.32 219.383 9.48133 220.351 9.804C221.348 10.1267 222.037 10.5813 222.419 11.168ZM238.674 30L237.97 27.228C236.621 29.428 234.744 30.528 232.338 30.528C230.373 30.528 228.76 29.9853 227.498 28.9C226.266 27.7853 225.65 26.2307 225.65 24.236C225.65 23.004 226.002 21.9333 226.706 21.024C227.44 20.0853 228.437 19.4253 229.698 19.044C231.341 18.5747 233.878 18.3107 237.31 18.252C237.31 16.316 237.222 15.2893 237.046 15.172C236.9 15.0547 236.43 14.996 235.638 14.996C235.14 14.996 234.45 15.0253 233.57 15.084C232.162 15.1427 230.256 15.304 227.85 15.568C227.616 13.984 227.44 12.2827 227.322 10.464C228.877 10.1413 230.505 9.87733 232.206 9.672C233.908 9.43733 235.433 9.32 236.782 9.32C239.129 9.32 240.889 9.716 242.062 10.508C243.236 11.2707 243.998 12.2827 244.35 13.544C244.702 14.8053 244.864 16.404 244.834 18.34L244.79 24.808L244.922 30H238.674ZM234.89 25.6C235.653 25.6 236.46 25.4533 237.31 25.16V21.904H236.958C234.788 21.904 233.585 22.0213 233.35 22.256C233.204 22.4027 233.086 22.6227 232.998 22.916C232.94 23.2093 232.91 23.488 232.91 23.752C232.91 24.456 233.072 24.94 233.394 25.204C233.717 25.468 234.216 25.6 234.89 25.6ZM267.812 11.036C268.076 11.3587 268.266 12.1653 268.384 13.456C268.53 14.7467 268.604 16.712 268.604 19.352V30H261.08V19.44V17.636C261.08 16.6973 261.006 16.1107 260.86 15.876C260.625 15.5827 260.082 15.436 259.232 15.436C258.821 15.436 258.513 15.4507 258.308 15.48C257.486 15.5093 256.636 15.7 255.756 16.052V30H248.232V9.76H254.348L255.184 13.148C257.296 10.596 259.818 9.32 262.752 9.32C263.808 9.32 264.79 9.46667 265.7 9.76C266.638 10.0533 267.342 10.4787 267.812 11.036ZM284.135 30L283.431 27.228C282.082 29.428 280.205 30.528 277.799 30.528C275.834 30.528 274.221 29.9853 272.959 28.9C271.727 27.7853 271.111 26.2307 271.111 24.236C271.111 23.004 271.463 21.9333 272.167 21.024C272.901 20.0853 273.898 19.4253 275.159 19.044C276.802 18.5747 279.339 18.3107 282.771 18.252C282.771 16.316 282.683 15.2893 282.507 15.172C282.361 15.0547 281.891 14.996 281.099 14.996C280.601 14.996 279.911 15.0253 279.031 15.084C277.623 15.1427 275.717 15.304 273.311 15.568C273.077 13.984 272.901 12.2827 272.783 10.464C274.338 10.1413 275.966 9.87733 277.667 9.672C279.369 9.43733 280.894 9.32 282.243 9.32C284.59 9.32 286.35 9.716 287.523 10.508C288.697 11.2707 289.459 12.2827 289.811 13.544C290.163 14.8053 290.325 16.404 290.295 18.34L290.251 24.808L290.383 30H284.135ZM280.351 25.6C281.114 25.6 281.921 25.4533 282.771 25.16V21.904H282.419C280.249 21.904 279.046 22.0213 278.811 22.256C278.665 22.4027 278.547 22.6227 278.459 22.916C278.401 23.2093 278.371 23.488 278.371 23.752C278.371 24.456 278.533 24.94 278.855 25.204C279.178 25.468 279.677 25.6 280.351 25.6Z" fill="#FFD521"/>
</svg>
