<svg width="405" height="479" viewBox="0 0 405 479" fill="none" xmlns="http://www.w3.org/2000/svg">
<path fill-rule="evenodd" clip-rule="evenodd" d="M35.4629 120.981C44.9363 16.7743 238.621 6.04071 349.963 175.981C423.075 326.209 281.503 449.483 222.963 431.981C164.423 414.48 25.9894 225.188 35.4629 120.981ZM317.963 187.981C209.588 50.3517 94.8989 45.3931 70.9628 141.481C59.0277 197.991 141.699 361.517 222.963 376.481C304.227 391.445 389.389 310.395 317.963 187.981Z" fill="#D7AD19" stroke="black" stroke-width="5"/>
<path d="M73.4631 179.265C70.4631 208.765 207.463 370.765 230.463 373.765" stroke="black" stroke-width="5"/>
<path d="M215.963 365.765L210.963 372.765" stroke="black" stroke-width="5"/>
<path d="M204.963 355.765L192.963 365.265" stroke="black" stroke-width="5"/>
<path d="M121.463 259.765L110.463 270.765" stroke="black" stroke-width="5"/>
<path d="M136.463 277.265L123.963 289.265" stroke="black" stroke-width="5"/>
<path d="M153.463 296.765L137.463 310.265" stroke="black" stroke-width="5"/>
<path d="M165.463 314.265L149.963 325.265" stroke="black" stroke-width="5"/>
<path d="M180.463 329.765L162.963 341.265" stroke="black" stroke-width="5"/>
<path d="M192.463 343.265L176.963 354.265" stroke="black" stroke-width="5"/>
<path d="M110.463 244.265L98.4629 248.765" stroke="black" stroke-width="5"/>
<path d="M95.9629 226.765L88.4629 230.765" stroke="black" stroke-width="5"/>
</svg>
