<svg width="286" height="43" viewBox="0 0 286 43" fill="none" xmlns="http://www.w3.org/2000/svg">
<path d="M25.8999 30.955C24.5433 31.5417 22.9666 31.9633 21.1699 32.22C19.3733 32.4767 17.7049 32.605 16.1649 32.605C11.1783 32.605 7.27328 31.3033 4.44994 28.7C1.62661 26.0967 0.214941 22.1 0.214941 16.71C0.214941 11.21 1.69994 7.10333 4.66994 4.39C7.63994 1.64 11.8199 0.264999 17.2099 0.264999C19.7766 0.264999 22.4533 0.613332 25.2399 1.31C25.2399 2.04333 25.1666 3.14333 25.0199 4.61C24.8733 6.04 24.7266 7.04833 24.5799 7.635H21.1149C18.5849 7.635 16.5866 7.69 15.1199 7.8C13.6899 7.87333 12.8283 8.03833 12.5349 8.295C11.9849 8.80833 11.5633 9.85333 11.2699 11.43C10.9766 12.97 10.8299 14.455 10.8299 15.885C10.8299 18.3783 11.1416 20.3033 11.7649 21.66C12.3883 22.98 13.1766 23.86 14.1299 24.3C15.0466 24.74 16.5683 24.96 18.6949 24.96C20.3816 24.96 22.5816 24.8133 25.2949 24.52L25.8999 30.955ZM42.1632 0.484999C45.1332 0.484999 47.6449 0.759999 49.6982 1.31C51.7515 1.86 53.3832 2.92333 54.5932 4.5C55.8399 6.04 56.4632 8.25833 56.4632 11.155C56.4632 12.4383 56.2615 13.7583 55.8582 15.115C55.4915 16.435 55.0149 17.59 54.4282 18.58C53.8782 19.57 53.3832 20.2117 52.9432 20.505C52.4299 20.8717 51.2932 21.165 49.5332 21.385C47.7732 21.5683 45.7015 21.66 43.3182 21.66C42.4749 21.66 41.1732 21.6233 39.4132 21.55V32H29.5132V0.649997C33.3632 0.539999 37.5799 0.484999 42.1632 0.484999ZM46.2882 14.62C46.6549 14.1433 46.8382 13.19 46.8382 11.76C46.8382 9.89 46.4349 8.57 45.6282 7.8C44.8582 7.03 43.5015 6.645 41.5582 6.645C40.8982 6.645 40.1832 6.7 39.4132 6.81V15.17C39.7799 15.2067 40.4949 15.225 41.5582 15.225C44.3815 15.225 45.9582 15.0233 46.2882 14.62ZM87.3573 14.62V30.295C84.9006 31.1017 82.5723 31.6883 80.3723 32.055C78.1723 32.4217 76.3206 32.605 74.8173 32.605C69.8306 32.605 65.9256 31.3033 63.1023 28.7C60.279 26.0967 58.8673 22.1 58.8673 16.71C58.8673 11.21 60.3523 7.10333 63.3223 4.39C66.2923 1.64 70.4723 0.264999 75.8623 0.264999C78.6856 0.264999 82.0773 0.686665 86.0373 1.53C86.0373 2.26333 85.964 3.36333 85.8173 4.83C85.6706 6.26 85.524 7.26833 85.3773 7.855L83.3973 7.8C80.9773 7.72667 79.089 7.69 77.7323 7.69C73.6623 7.69 71.444 7.92833 71.0773 8.405C70.4906 9.10167 70.069 10.1833 69.8123 11.65C69.5923 13.1167 69.4823 14.5283 69.4823 15.885C69.4823 18.3417 69.7573 20.2483 70.3073 21.605C70.8573 22.9617 71.7006 23.915 72.8373 24.465C73.974 25.015 75.514 25.29 77.4573 25.29H77.6773V14.62H87.3573ZM91.7577 0.649997H114.583V7.25H101.658V12.97H112.548V18.91H101.658V25.29H114.528V32H91.7577V0.649997Z" fill="#FF0303"/>
<path d="M143.497 32H133.597V7.525H124.742V0.649997H152.352V7.525H143.497V32ZM168.429 32L167.549 28.535C165.862 31.285 163.516 32.66 160.509 32.66C158.052 32.66 156.036 31.9817 154.459 30.625C152.919 29.2317 152.149 27.2883 152.149 24.795C152.149 23.255 152.589 21.9167 153.469 20.78C154.386 19.6067 155.632 18.7817 157.209 18.305C159.262 17.7183 162.434 17.3883 166.724 17.315C166.724 14.895 166.614 13.6117 166.394 13.465C166.211 13.3183 165.624 13.245 164.634 13.245C164.011 13.245 163.149 13.2817 162.049 13.355C160.289 13.4283 157.906 13.63 154.899 13.96C154.606 11.98 154.386 9.85333 154.239 7.58C156.182 7.17667 158.217 6.84667 160.344 6.59C162.471 6.29667 164.377 6.15 166.064 6.15C168.997 6.15 171.197 6.645 172.664 7.635C174.131 8.58833 175.084 9.85333 175.524 11.43C175.964 13.0067 176.166 15.005 176.129 17.425L176.074 25.51L176.239 32H168.429ZM163.699 26.5C164.652 26.5 165.661 26.3167 166.724 25.95V21.88H166.284C163.571 21.88 162.067 22.0267 161.774 22.32C161.591 22.5033 161.444 22.7783 161.334 23.145C161.261 23.5117 161.224 23.86 161.224 24.19C161.224 25.07 161.426 25.675 161.829 26.005C162.232 26.335 162.856 26.5 163.699 26.5ZM204.851 8.295C205.181 8.69833 205.419 9.70667 205.566 11.32C205.749 12.9333 205.841 15.39 205.841 18.69V32H196.436V18.8V16.545C196.436 15.3717 196.344 14.6383 196.161 14.345C195.867 13.9783 195.189 13.795 194.126 13.795C193.612 13.795 193.227 13.8133 192.971 13.85C191.944 13.8867 190.881 14.125 189.781 14.565V32H180.376V6.7H188.021L189.066 10.935C191.706 7.745 194.859 6.15 198.526 6.15C199.846 6.15 201.074 6.33333 202.211 6.7C203.384 7.06667 204.264 7.59833 204.851 8.295ZM223.385 6.26C225.109 6.26 226.905 6.38833 228.775 6.645C230.645 6.865 232.827 7.17667 235.32 7.58V29.47C235.32 34.7133 233.579 38.7833 230.095 41.68C229.655 42.0467 228.665 42.3583 227.125 42.615C225.585 42.8717 223.844 43 221.9 43C217.684 43 214.347 42.45 211.89 41.35C211.854 40.5433 211.909 39.48 212.055 38.16C212.239 36.84 212.422 35.795 212.605 35.025C215.245 35.4283 217.83 35.63 220.36 35.63C221.644 35.63 222.725 35.5567 223.605 35.41C224.522 35.3 225.09 35.1167 225.31 34.86C225.604 34.5667 225.824 33.4667 225.97 31.56C226.007 31.0467 226.025 30.295 226.025 29.305V27.93C225.109 29.2867 223.935 30.2583 222.505 30.845C221.075 31.4317 219.792 31.725 218.655 31.725C215.575 31.725 213.247 30.7167 211.67 28.7C210.094 26.6833 209.305 23.7317 209.305 19.845C209.305 17.2783 209.654 14.8767 210.35 12.64C211.084 10.3667 212.074 8.79 213.32 7.91C214.127 7.36 215.429 6.95667 217.225 6.7C219.059 6.40667 221.112 6.26 223.385 6.26ZM222.23 24.85C223.587 24.85 224.815 24.63 225.915 24.19V12.695C225.512 12.6217 224.907 12.5483 224.1 12.475C223.734 12.4383 223.184 12.42 222.45 12.42C221.314 12.42 220.599 12.53 220.305 12.75C219.902 13.0433 219.572 13.8683 219.315 15.225C219.095 16.545 218.985 17.9383 218.985 19.405C218.985 21.4217 219.205 22.8333 219.645 23.64C220.122 24.4467 220.984 24.85 222.23 24.85ZM255.125 25.4C256.042 25.4 257.747 25.3083 260.24 25.125C260.57 25.125 261.175 25.0883 262.055 25.015L262.88 30.68C260.057 32 256.39 32.66 251.88 32.66C247.663 32.66 244.418 31.5967 242.145 29.47C239.908 27.3433 238.79 24.135 238.79 19.845C238.79 17.645 239.065 15.5183 239.615 13.465C240.202 11.4117 240.862 9.98167 241.595 9.175C242.365 8.36833 243.795 7.67167 245.885 7.085C247.975 6.49833 250.047 6.205 252.1 6.205C255.4 6.205 257.875 6.79167 259.525 7.965C261.175 9.13833 262.257 10.77 262.77 12.86C263.283 14.9133 263.54 17.6817 263.54 21.165C261.047 21.3117 258.608 21.385 256.225 21.385H248.415C248.415 22.5583 248.653 23.4383 249.13 24.025C249.643 24.6117 250.358 24.9967 251.275 25.18C252.192 25.3267 253.475 25.4 255.125 25.4ZM248.965 12.75C248.745 12.86 248.58 13.3367 248.47 14.18C248.36 15.0233 248.287 15.9767 248.25 17.04H251.11C252.833 17.04 254.08 17.0217 254.85 16.985C254.85 15.225 254.593 13.9783 254.08 13.245C253.603 12.5117 252.76 12.145 251.55 12.145C250.56 12.145 249.698 12.3467 248.965 12.75ZM282.525 6.15C283.002 6.15 283.497 6.205 284.01 6.315C284.56 6.425 284.964 6.55333 285.22 6.7C285.22 7.50667 285.129 8.845 284.945 10.715C284.762 12.5483 284.597 13.85 284.45 14.62C284.084 14.5833 283.405 14.565 282.415 14.565C280.105 14.565 278.052 14.6933 276.255 14.95V32H266.85V6.7H274.715L275.815 10.77H275.87C276.934 9.37667 278.07 8.25833 279.28 7.415C280.49 6.57167 281.572 6.15 282.525 6.15Z" fill="#F0C60F"/>
</svg>
