<svg width="302" height="52" viewBox="0 0 302 52" fill="none" xmlns="http://www.w3.org/2000/svg">
<path d="M26.4546 12.8081C24.4136 11.0715 22.3368 9.86296 20.2241 9.18262C20.0988 10.8656 20.0361 12.9871 20.0361 15.5474C20.0361 18.1076 20.3136 21.0617 20.8687 24.4097L12.3823 28.1963C13.8146 29.6823 15.7214 30.8013 18.1025 31.5532C19.4095 31.965 20.8149 32.1709 22.3188 32.1709C23.8407 32.1709 25.3983 32.0366 26.9917 31.7681L22.3188 41.5972C17.1089 39.8963 12.991 38.2492 9.96533 36.6558C6.93962 35.0444 4.6748 33.1556 3.1709 30.9893C1.6849 28.8229 0.789714 26.209 0.485352 23.1475C0.288411 21.2318 0.189941 19.2713 0.189941 17.2661C0.189941 15.243 0.225749 13.3721 0.297363 11.6533L22.3726 0.776855L28.8179 5.44971L26.4546 12.8081ZM12.7046 9.45117C9.75049 10.8656 8.27344 13.4616 8.27344 17.2393C8.27344 20.6589 9.11491 23.6577 10.7979 26.2358C11.9437 25.4839 12.6509 23.9889 12.9194 21.751C13.0269 20.8737 13.0806 19.513 13.0806 17.6689C13.0806 15.807 12.9552 13.0677 12.7046 9.45117ZM32.4434 51.3994C33.8398 47.3532 34.7529 41.9373 35.1826 35.1519L29.6772 33.1646L35.4512 27.6592C35.4512 26.8356 35.4512 25.0452 35.4512 22.2881C35.4512 19.5309 35.3348 15.2072 35.1021 9.31689C34.1711 8.88721 33.2222 8.45752 32.2554 8.02783C31.3065 7.58024 30.3665 7.1237 29.4355 6.6582L34.0547 0.776855C38.9603 2.20915 42.4963 3.26546 44.6626 3.9458C44.6089 4.51872 44.5641 5.09163 44.5283 5.66455C44.4925 6.23747 44.4478 6.79248 44.394 7.32959L52.5581 0.776855C58.6453 5.37809 61.689 10.8477 61.689 17.1855C61.689 17.8659 61.6532 18.5462 61.5815 19.2266C60.8654 26.4596 57.6785 33.7733 52.021 41.1675L43.4004 38.0791C43.5615 40.9616 43.9106 42.8862 44.4478 43.853C41.5116 45.6613 37.5101 48.1768 32.4434 51.3994ZM52.2896 33.1108C54.5096 33.1108 55.6196 31.4189 55.6196 28.0352C55.6196 25.1527 55.0646 22.1896 53.9546 19.146C52.8446 16.1024 51.3407 13.7122 49.4429 11.9756C48.6909 11.2773 47.9569 10.9282 47.2407 10.9282C46.1307 10.9282 45.0475 11.7428 43.9912 13.3721C43.6152 19.2624 43.3825 24.4723 43.293 29.002L52.1284 33.1108C52.1821 33.1108 52.2358 33.1108 52.2896 33.1108ZM93.1367 12.9692C96.9681 16.0308 99.9312 19.3161 102.026 22.8252C97.9438 31.1504 91.6776 37.2645 83.2271 41.1675C71.2316 36.3335 65.2339 29.0199 65.2339 19.2266C65.2339 18.5104 65.2697 17.7853 65.3413 17.0513C70.9272 8.95882 77.1219 3.53402 83.9253 0.776855C87.6493 3.37288 92.7428 5.50342 99.2061 7.16846L93.1367 12.9692ZM83.3882 8.45752C83.2271 10.2658 83.1465 11.8682 83.1465 13.2646C83.1465 14.6611 83.1644 15.8338 83.2002 16.7827C84.1849 15.8696 85.1965 14.9565 86.2349 14.0435C87.2733 13.1304 88.2848 12.1994 89.2695 11.2505C87.7298 10.0509 85.7694 9.11995 83.3882 8.45752ZM83.2539 18.0986C83.3434 20.265 83.5135 22.4224 83.7642 24.5708C81.9022 24.911 79.709 26.1374 77.1846 28.25C78.6527 29.5928 80.3267 30.8192 82.2065 31.9292C84.1043 33.0392 85.8768 33.5942 87.5239 33.5942C87.9894 33.5942 88.4549 33.5584 88.9204 33.4868C91.8745 33.0034 93.5306 31.6875 93.8887 29.5391C93.9782 28.9661 94.0229 28.4111 94.0229 27.874C94.0229 26.3701 93.6738 25.0363 92.9756 23.8726C92.2773 22.6909 91.1315 21.5451 89.5381 20.4351C87.9447 19.3071 85.8499 18.5283 83.2539 18.0986ZM75.1973 26.2896C75.6628 25.269 75.9313 24.0964 76.0029 22.7715L76.2446 13.4258C76.2625 12.6201 75.994 11.5817 75.439 10.3105C75.1525 10.5612 74.8929 10.8566 74.6602 11.1968C73.0309 13.381 72.2163 15.8338 72.2163 18.5552C72.2163 21.5093 73.21 24.0874 75.1973 26.2896ZM135.273 5.87939L130.708 11.1968C127.915 9.26318 125.184 8.1084 122.517 7.73242C122.355 9.27214 122.248 11.0267 122.194 12.9961H133.286V19.334H122.329C122.382 21.375 122.588 23.7472 122.946 26.4507L116.77 28.7065C120.153 31.7502 124.862 33.272 130.896 33.272C131.576 33.272 132.274 33.2541 132.99 33.2183L127.109 41.1675C119.5 40.3439 113.645 37.6584 109.545 33.1108C105.463 28.5633 103.422 21.8584 103.422 12.9961L124.262 0.776855C126.787 2.51351 130.457 4.21436 135.273 5.87939ZM114.702 26.5044L116.689 25.833C116.152 21.9121 115.883 18.5194 115.883 15.6548C115.883 12.7902 115.928 10.4985 116.018 8.77979C114.943 9.31689 114.066 9.94352 113.386 10.6597C112.723 11.3758 112.24 12.0741 111.936 12.7544C111.649 13.4168 111.506 14.3657 111.506 15.6011C111.506 16.8185 111.524 17.7406 111.56 18.3672C111.685 21.196 112.732 23.9084 114.702 26.5044Z" fill="#FF0303"/>
<path d="M149.533 22.3418C152.845 17.7943 157.169 13.0767 162.504 8.18896C161.627 7.47282 160.696 7.11475 159.711 7.11475C158.315 7.11475 155.361 8.04574 150.849 9.90771L157.321 0.0517578C162.531 0.588867 167.374 0.857422 171.85 0.857422C176.344 0.857422 180.632 0.588867 184.714 0.0517578C182.727 4.63509 181.348 7.83984 180.578 9.66602C178.591 8.84245 176.523 8.19792 174.375 7.73242L174.589 29.7808C171.42 30.1388 168.422 31.2936 165.593 33.2451C167.884 35.125 170.633 36.0649 173.837 36.0649C177.042 36.0649 180.533 35.0802 184.311 33.1108C184.239 34.3283 184.186 35.5457 184.15 36.7632C174.303 41.2928 166.694 42.0179 161.323 38.9385C155.952 35.859 152.022 30.3268 149.533 22.3418ZM165.244 10.9819C162.469 13.5959 160.83 16.2993 160.329 19.0923C160.15 20.0412 160.061 21.1781 160.061 22.5029C160.061 23.8278 160.401 25.3317 161.081 27.0146C161.761 28.6797 162.639 30.1388 163.713 31.3921C165.002 30.1209 165.682 28.1605 165.754 25.5107C165.879 20.5693 165.942 17.2214 165.942 15.4668C165.942 13.7122 165.709 12.2173 165.244 10.9819ZM183.72 21.6167L194.194 13.1035L206.064 18.6626C204.667 19.88 203.96 21.2497 203.942 22.7715L203.835 31.6606C203.835 32.2694 204.148 32.9587 204.775 33.7285C205.419 34.4984 206.028 35.116 206.601 35.5815L201.176 41.1675L197.014 36.8975C196.011 37.7031 195 38.4461 193.979 39.1265C192.958 39.7889 192.045 40.4871 191.24 41.2212C188.554 40.2186 186.048 38.6699 183.72 36.5752C184.383 35.7337 184.768 34.5073 184.875 32.896L184.794 24.7856C184.794 24.714 184.794 24.6424 184.794 24.5708C184.794 23.5145 184.436 22.5298 183.72 21.6167ZM192.932 19.5488C191.893 21.1064 191.374 22.494 191.374 23.7114V30.291C191.374 31.6338 191.616 32.5916 192.099 33.1646C192.511 33.7554 192.887 34.2835 193.227 34.749C193.585 35.2145 194.149 35.5547 194.919 35.7695L197.121 34.1851V21.8315L192.932 19.5488ZM218.337 16.917L221.479 12.9961L230.046 19.1997L229.24 22.3687L228.891 31.0161C228.891 31.0698 228.891 31.1235 228.891 31.1772C228.891 32.0545 229.16 32.7796 229.697 33.3525C230.234 33.9076 230.843 34.3283 231.523 34.6147L226.152 41.1675C224.827 40.1291 223.806 39.207 223.09 38.4014C222.392 37.5957 222.043 35.9396 222.043 33.4331C222.043 33.2541 222.043 33.0661 222.043 32.8691L222.231 22.9326C222.231 22.1807 221.085 20.9274 218.793 19.1729L217.719 20.8647L217.209 31.0161C217.209 31.0698 217.209 31.1235 217.209 31.1772C217.209 32.0545 217.478 32.7796 218.015 33.3525C218.552 33.9076 219.169 34.3283 219.868 34.6147L214.497 41.1675L208.83 36.5752C209.851 35.3398 210.361 34.1045 210.361 32.8691L210.576 20.6768C210.576 19.8174 209.913 18.958 208.588 18.0986L212.644 12.9961L218.337 16.917ZM234.262 21.6167L244.736 13.1035L255.988 18.6626C254.61 19.88 253.92 21.2497 253.92 22.7715L253.813 31.6606C253.795 32.2694 254.323 33.4779 255.397 35.2861C256.472 37.0944 257.277 38.2402 257.814 38.7236L247.207 50.8892C243.017 49.9582 238.389 49.3136 233.322 48.9556L240.251 40.2275C237.941 39.2786 235.963 38.0612 234.316 36.5752C234.907 35.7874 235.283 34.561 235.444 32.896L235.39 24.7856C235.408 23.604 235.032 22.5477 234.262 21.6167ZM251.289 42.4028C249.212 40.0396 248.084 37.1571 247.905 33.7554L240.546 43.1548C243.375 43.1548 246.41 43.6024 249.65 44.4976L251.289 42.4028ZM247.744 30.6938L247.663 21.8315L242.91 19.5488C241.871 21.1064 241.352 22.494 241.352 23.7114V30.291C241.352 31.6159 241.549 32.5379 241.943 33.0571C242.355 33.5763 242.713 34.015 243.017 34.373C243.321 34.7132 243.706 34.9997 244.172 35.2324L247.744 30.6938ZM272.478 41.1675L259.614 36.0381C260.097 33.3525 260.339 30.5596 260.339 27.6592C260.339 24.7409 260.061 21.6973 259.506 18.5283L268.771 13.0767V12.9961L268.825 13.0229H268.852L279.299 20.5156L268.422 31.9561C269.156 32.8333 269.971 33.3167 270.866 33.4062C271.761 33.4958 272.495 33.5405 273.068 33.5405C273.659 33.5405 274.348 33.5137 275.136 33.46C275.942 33.3883 276.927 33.3346 278.09 33.2988C277.141 34.6237 276.201 35.9396 275.271 37.2466C274.34 38.5535 273.409 39.8605 272.478 41.1675ZM268.02 20.2471C266.981 20.2471 266.462 21.6615 266.462 24.4902C266.462 26.1016 266.73 27.7129 267.268 29.3242C267.268 29.4854 267.294 29.6196 267.348 29.7271L271.672 25.1616C271.976 24.8394 272.128 24.5171 272.128 24.1948C272.128 23.8726 271.967 23.4608 271.645 22.9595C271.341 22.4582 271.027 22.0464 270.705 21.7241C269.577 20.7394 268.682 20.2471 268.02 20.2471ZM290.444 16.917L293.935 13.3721C297.534 15.8607 299.969 18.3851 301.24 20.9453L296.943 26.6924C296.459 25.278 295.797 24.0337 294.956 22.9595C294.132 21.8853 292.753 20.7842 290.82 19.6562L289.934 20.8647L289.423 30.0225C289.37 30.9535 289.96 31.9202 291.196 32.9229C292.431 33.9255 293.389 34.57 294.069 34.8564L289.611 41.1675L281.286 34.6953C282.289 33.4958 282.808 32.2604 282.844 30.9893L282.79 20.6768C282.736 19.8174 282.074 18.958 280.803 18.0986L284.858 12.9961L290.444 16.917Z" fill="#F0C60F"/>
</svg>
