<svg width="2515" height="2210" viewBox="0 0 2515 2210" fill="none" xmlns="http://www.w3.org/2000/svg">
<g filter="url(#filter0_f_33_14792)">
<path d="M761.031 1982.69H775.975H778.287L779.177 1996.83H756.762L761.031 1982.69Z" fill="black" fill-opacity="0.1"/>
<path d="M761.031 1982.69H775.975H778.287L779.177 1996.83H756.762L761.031 1982.69Z" fill="url(#paint0_linear_33_14792)" fill-opacity="0.45"/>
</g>
<g filter="url(#filter1_f_33_14792)">
<path d="M1747.25 1982.69H1732.3H1729.99L1729.1 1996.83H1751.52L1747.25 1982.69Z" fill="black" fill-opacity="0.1"/>
<path d="M1747.25 1982.69H1732.3H1729.99L1729.1 1996.83H1751.52L1747.25 1982.69Z" fill="url(#paint1_linear_33_14792)" fill-opacity="0.45"/>
</g>
<g opacity="0.25" filter="url(#filter2_f_33_14792)">
<ellipse cx="1228.32" cy="1945.97" rx="844.061" ry="85.3823" fill="url(#paint2_linear_33_14792)"/>
</g>
<g filter="url(#filter3_f_33_14792)">
<path d="M1818.17 1910.06H1744.04V1916.96H1823.03L1818.17 1910.06Z" fill="black" fill-opacity="0.1"/>
<path d="M1818.17 1910.06H1744.04V1916.96H1823.03L1818.17 1910.06Z" fill="url(#paint3_linear_33_14792)" fill-opacity="0.1"/>
</g>
<g filter="url(#filter4_f_33_14792)">
<path d="M719.236 1911.04H793.365V1917.94H714.379L719.236 1911.04Z" fill="black" fill-opacity="0.1"/>
<path d="M719.236 1911.04H793.365V1917.94H714.379L719.236 1911.04Z" fill="url(#paint4_linear_33_14792)" fill-opacity="0.1"/>
</g>
<g filter="url(#filter5_f_33_14792)">
<path d="M818.27 2001.76V1896.58H574.195V2001.76H818.27Z" fill="url(#paint5_linear_33_14792)" fill-opacity="0.2"/>
</g>
<g filter="url(#filter6_f_33_14792)">
<path d="M1708.46 2001.76V1896.58H1952.54V2001.76H1708.46Z" fill="url(#paint6_linear_33_14792)" fill-opacity="0.2"/>
</g>
<path d="M691.423 1879.73L680.299 1598.94H746.005C747.639 1652.11 750.906 1765.85 750.906 1795.51C750.906 1826.92 764.692 1830.56 787.753 1830.56H874.877H883.227H893.391V1910.48H723.417C706.227 1910.48 692.104 1896.9 691.423 1879.73Z" fill="#393939"/>
<g filter="url(#filter7_if_33_14792)">
<path d="M691.423 1879.73L680.299 1598.94H743.827C745.461 1652.11 748.365 1773.84 748.365 1803.5C748.365 1833.17 773.05 1838.55 785.938 1838.55H852.37H865.439H889.761V1868.06L890.759 1889.27V1910.48H723.417C706.227 1910.48 692.104 1896.9 691.423 1879.73Z" fill="#252525"/>
</g>
<g filter="url(#filter8_i_33_14792)">
<path d="M691.031 1879.68L680.299 1598.94H703.895C705.471 1652.11 719.142 1767.56 723.498 1816.86C727.235 1859.14 755.715 1862.13 768.15 1862.13H857.815H882.501H886.494L888.309 1871.75L890.487 1891.2L892.665 1910.48H723.027C705.819 1910.48 691.688 1896.88 691.031 1879.68Z" fill="#0C0C0C"/>
<path d="M691.031 1879.68L680.299 1598.94H703.895C705.471 1652.11 719.142 1767.56 723.498 1816.86C727.235 1859.14 755.715 1862.13 768.15 1862.13H857.815H882.501H886.494L888.309 1871.75L890.487 1891.2L892.665 1910.48H723.027C705.819 1910.48 691.688 1896.88 691.031 1879.68Z" fill="url(#paint7_linear_33_14792)" fill-opacity="0.35"/>
</g>
<g filter="url(#filter9_f_33_14792)">
<path d="M691.031 1879.68L680.299 1598.94H703.895C705.471 1652.11 711.882 1803.5 718.416 1831.67C725.144 1860.68 747.094 1870.24 763.793 1870.24C780.492 1870.24 848.195 1870.07 848.195 1870.07H875.422H881.956L886.494 1886L893.754 1910.48H723.027C705.819 1910.48 691.688 1896.88 691.031 1879.68Z" fill="#303030"/>
</g>
<path d="M1827.21 1879.73L1838.33 1598.94H1772.62C1770.99 1652.11 1767.72 1765.85 1767.72 1795.51C1767.72 1826.92 1753.94 1830.56 1730.88 1830.56H1643.75H1635.4H1625.24V1910.48H1795.21C1812.4 1910.48 1826.53 1896.9 1827.21 1879.73Z" fill="#393939"/>
<g filter="url(#filter10_if_33_14792)">
<path d="M1827.21 1879.73L1838.33 1598.94H1774.8C1773.17 1652.11 1770.26 1773.84 1770.26 1803.5C1770.26 1833.17 1745.58 1838.55 1732.69 1838.55H1666.26H1653.19H1628.87V1868.06L1627.87 1889.27V1910.48H1795.21C1812.4 1910.48 1826.53 1896.9 1827.21 1879.73Z" fill="#252525"/>
</g>
<g filter="url(#filter11_i_33_14792)">
<path d="M1827.6 1879.68L1838.33 1598.94H1814.73C1813.16 1652.11 1799.49 1767.56 1795.13 1816.86C1791.39 1859.14 1762.91 1862.13 1750.48 1862.13H1660.81H1636.13H1632.13L1630.32 1871.75L1628.14 1891.2L1625.96 1910.48H1795.6C1812.81 1910.48 1826.94 1896.88 1827.6 1879.68Z" fill="#0C0C0C"/>
<path d="M1827.6 1879.68L1838.33 1598.94H1814.73C1813.16 1652.11 1799.49 1767.56 1795.13 1816.86C1791.39 1859.14 1762.91 1862.13 1750.48 1862.13H1660.81H1636.13H1632.13L1630.32 1871.75L1628.14 1891.2L1625.96 1910.48H1795.6C1812.81 1910.48 1826.94 1896.88 1827.6 1879.68Z" fill="url(#paint8_linear_33_14792)" fill-opacity="0.35"/>
</g>
<g filter="url(#filter12_f_33_14792)">
<path d="M1827.6 1879.68L1838.33 1598.94H1814.73C1813.16 1652.11 1806.75 1803.5 1800.21 1831.67C1793.48 1860.68 1771.53 1870.24 1754.84 1870.24C1738.14 1870.24 1670.43 1870.07 1670.43 1870.07H1643.21H1636.67L1632.14 1886L1624.87 1910.48H1795.6C1812.81 1910.48 1826.94 1896.88 1827.6 1879.68Z" fill="#303030"/>
</g>
<g filter="url(#filter13_f_33_14792)">
<rect x="680.289" y="1594.24" width="65.0844" height="8.40431" fill="black" fill-opacity="0.65"/>
</g>
<g filter="url(#filter14_f_33_14792)">
<rect x="1772.73" y="1594.24" width="65.0843" height="8.40431" fill="black" fill-opacity="0.65"/>
</g>
<path d="M757.625 1972.24V1899.38C757.625 1893.48 762.419 1888.69 768.324 1888.71L1756.66 1891.12V1972.24C1756.66 1978.14 1751.88 1982.91 1745.98 1982.91H768.298C762.404 1982.91 757.625 1978.14 757.625 1972.24Z" fill="#3E3D3D"/>
<path d="M757.625 1972.24V1899.38C757.625 1893.48 762.419 1888.69 768.324 1888.71L1756.66 1891.12V1972.24C1756.66 1978.14 1751.88 1982.91 1745.98 1982.91H768.298C762.404 1982.91 757.625 1978.14 757.625 1972.24Z" fill="url(#paint9_linear_33_14792)" fill-opacity="0.2"/>
<path d="M1723.22 1847.1H787.921C784.014 1847.1 780.419 1849.23 778.549 1852.66L765.246 1877.07C760.665 1885.48 766.749 1895.72 776.322 1895.72H1737.15C1747.12 1895.72 1753.15 1884.7 1747.77 1876.31L1732.21 1852.02C1730.25 1848.95 1726.86 1847.1 1723.22 1847.1Z" fill="#222222"/>
<path d="M1712.58 1853.13H795.275C792.117 1853.13 789.122 1854.53 787.094 1856.95L772.668 1874.17C766.849 1881.12 771.788 1891.7 780.85 1891.7H1732.91C1741.65 1891.7 1745.94 1881.05 1739.63 1875L1719.98 1856.11C1717.99 1854.2 1715.34 1853.13 1712.58 1853.13Z" fill="#2F2F2F" stroke="#2F2F2F" stroke-width="0.97028"/>
<path d="M761.985 1888.49C757.079 1888.49 757.628 1884.58 757.628 1882.18L757.628 1879.12C759.463 1880.13 761.523 1880.66 763.617 1880.66H1475.63H1626.31H1738.68C1741.71 1880.59 1748.7 1880.66 1752.48 1880.66C1754.66 1880.66 1756.74 1878.92 1756.74 1878.92V1882.84C1756.74 1888.02 1757.2 1888.51 1753.63 1888.49H1226.91H1163.37H1110.18H1048.64H1000.17H935.539H884.344H820.623C803.013 1888.64 766.647 1888.49 761.985 1888.49Z" fill="#383737"/>
<path d="M1716.42 1815.24H797.855C793.933 1815.24 790.328 1817.39 788.464 1820.84L763.587 1866.9C759.746 1874.01 764.895 1882.65 772.977 1882.65H1741.3C1749.38 1882.65 1754.53 1874.01 1750.69 1866.9L1725.81 1820.84C1723.95 1817.39 1720.34 1815.24 1716.42 1815.24Z" fill="#303030"/>
<path d="M1716.42 1815.24H797.855C793.933 1815.24 790.328 1817.39 788.464 1820.84L763.587 1866.9C759.746 1874.01 764.895 1882.65 772.977 1882.65H1741.3C1749.38 1882.65 1754.53 1874.01 1750.69 1866.9L1725.81 1820.84C1723.95 1817.39 1720.34 1815.24 1716.42 1815.24Z" fill="url(#paint10_linear_33_14792)" fill-opacity="0.45"/>
<g filter="url(#filter15_i_33_14792)">
<path d="M778.314 1982.92H1736.69V1988.27C1736.69 1993.09 1732.78 1997 1727.95 1997H787.047C782.224 1997 778.314 1993.09 778.314 1988.27V1982.92Z" fill="#1A1A1A"/>
</g>
<path d="M779.768 1982.92H783.333V1990.19C783.333 1991.17 782.534 1991.97 781.55 1991.97C780.566 1991.97 779.768 1991.17 779.768 1990.19V1982.92Z" fill="#242424"/>
<path d="M786.666 1982.92H793.563V1990.03C793.563 1991.1 792.695 1991.97 791.623 1991.97H788.607C787.535 1991.97 786.666 1991.1 786.666 1990.03V1982.92Z" fill="#242424"/>
<path d="M908.641 1982.92H915.538V1990.03C915.538 1991.1 914.669 1991.97 913.597 1991.97H910.581C909.509 1991.97 908.641 1991.1 908.641 1990.03V1982.92Z" fill="#242424"/>
<path d="M1101.77 1982.92H1108.66V1990.03C1108.66 1991.1 1107.8 1991.97 1106.72 1991.97H1103.71C1102.64 1991.97 1101.77 1991.1 1101.77 1990.03V1982.92Z" fill="#242424"/>
<path d="M1294.89 1982.92H1301.79V1990.03C1301.79 1991.1 1300.92 1991.97 1299.85 1991.97H1296.83C1295.76 1991.97 1294.89 1991.1 1294.89 1990.03V1982.92Z" fill="#242424"/>
<path d="M1488.02 1982.92H1494.91V1990.03C1494.91 1991.1 1494.05 1991.97 1492.97 1991.97H1489.96C1488.89 1991.97 1488.02 1991.1 1488.02 1990.03V1982.92Z" fill="#242424"/>
<path d="M1630.32 1982.92H1637.22V1990.03C1637.22 1991.1 1636.35 1991.97 1635.28 1991.97H1632.26C1631.19 1991.97 1630.32 1991.1 1630.32 1990.03V1982.92Z" fill="#242424"/>
<path d="M847.654 1982.92H854.552V1990.03C854.552 1991.1 853.683 1991.97 852.611 1991.97H849.595C848.523 1991.97 847.654 1991.1 847.654 1990.03V1982.92Z" fill="#242424"/>
<path d="M1040.78 1982.92H1047.68V1990.03C1047.68 1991.1 1046.81 1991.97 1045.74 1991.97H1042.72C1041.65 1991.97 1040.78 1991.1 1040.78 1990.03V1982.92Z" fill="#242424"/>
<path d="M1233.9 1982.92H1240.8V1990.03C1240.8 1991.1 1239.93 1991.97 1238.86 1991.97H1235.84C1234.77 1991.97 1233.9 1991.1 1233.9 1990.03V1982.92Z" fill="#242424"/>
<path d="M1427.03 1982.92H1433.93V1990.03C1433.93 1991.1 1433.06 1991.97 1431.99 1991.97H1428.97C1427.9 1991.97 1427.03 1991.1 1427.03 1990.03V1982.92Z" fill="#242424"/>
<path d="M969.627 1982.92H976.524V1990.03C976.524 1991.1 975.656 1991.97 974.584 1991.97H971.568C970.496 1991.97 969.627 1991.1 969.627 1990.03V1982.92Z" fill="#242424"/>
<path d="M1162.75 1982.92H1169.65V1990.03C1169.65 1991.1 1168.78 1991.97 1167.71 1991.97H1164.69C1163.62 1991.97 1162.75 1991.1 1162.75 1990.03V1982.92Z" fill="#242424"/>
<path d="M1355.88 1982.92H1362.78V1990.03C1362.78 1991.1 1361.91 1991.97 1360.84 1991.97H1357.82C1356.75 1991.97 1355.88 1991.1 1355.88 1990.03V1982.92Z" fill="#242424"/>
<path d="M1549 1982.92H1555.9V1990.03C1555.9 1991.1 1555.03 1991.97 1553.96 1991.97H1550.94C1549.87 1991.97 1549 1991.1 1549 1990.03V1982.92Z" fill="#242424"/>
<path d="M1691.31 1982.92H1698.21V1990.03C1698.21 1991.1 1697.34 1991.97 1696.27 1991.97H1693.25C1692.18 1991.97 1691.31 1991.1 1691.31 1990.03V1982.92Z" fill="#242424"/>
<path d="M817.158 1982.92H824.056V1990.03C824.056 1991.1 823.187 1991.97 822.115 1991.97H819.099C818.027 1991.97 817.158 1991.1 817.158 1990.03V1982.92Z" fill="#242424"/>
<path d="M939.133 1982.92H946.03V1990.03C946.03 1991.1 945.161 1991.97 944.09 1991.97H941.073C940.002 1991.97 939.133 1991.1 939.133 1990.03V1982.92Z" fill="#242424"/>
<path d="M1132.26 1982.92H1139.16V1990.03C1139.16 1991.1 1138.29 1991.97 1137.22 1991.97H1134.2C1133.13 1991.97 1132.26 1991.1 1132.26 1990.03V1982.92Z" fill="#242424"/>
<path d="M1325.39 1982.92H1332.28V1990.03C1332.28 1991.1 1331.42 1991.97 1330.34 1991.97H1327.33C1326.26 1991.97 1325.39 1991.1 1325.39 1990.03V1982.92Z" fill="#242424"/>
<path d="M1518.51 1982.92H1525.41V1990.03C1525.41 1991.1 1524.54 1991.97 1523.47 1991.97H1520.45C1519.38 1991.97 1518.51 1991.1 1518.51 1990.03V1982.92Z" fill="#242424"/>
<path d="M1660.82 1982.92H1667.71V1990.03C1667.71 1991.1 1666.84 1991.97 1665.77 1991.97H1662.76C1661.69 1991.97 1660.82 1991.1 1660.82 1990.03V1982.92Z" fill="#242424"/>
<path d="M878.145 1982.92H885.042V1990.03C885.042 1991.1 884.173 1991.97 883.101 1991.97H880.085C879.013 1991.97 878.145 1991.1 878.145 1990.03V1982.92Z" fill="#242424"/>
<path d="M1071.27 1982.92H1078.17V1990.03C1078.17 1991.1 1077.3 1991.97 1076.23 1991.97H1073.21C1072.14 1991.97 1071.27 1991.1 1071.27 1990.03V1982.92Z" fill="#242424"/>
<path d="M1264.4 1982.92H1271.3V1990.03C1271.3 1991.1 1270.43 1991.97 1269.36 1991.97H1266.34C1265.27 1991.97 1264.4 1991.1 1264.4 1990.03V1982.92Z" fill="#242424"/>
<path d="M1457.53 1982.92H1464.42V1990.03C1464.42 1991.1 1463.56 1991.97 1462.48 1991.97H1459.47C1458.4 1991.97 1457.53 1991.1 1457.53 1990.03V1982.92Z" fill="#242424"/>
<path d="M1000.12 1982.92H1007.02V1990.03C1007.02 1991.1 1006.15 1991.97 1005.08 1991.97H1002.06C1000.99 1991.97 1000.12 1991.1 1000.12 1990.03V1982.92Z" fill="#242424"/>
<path d="M1193.25 1982.92H1200.14V1990.03C1200.14 1991.1 1199.27 1991.97 1198.2 1991.97H1195.19C1194.11 1991.97 1193.25 1991.1 1193.25 1990.03V1982.92Z" fill="#242424"/>
<path d="M1386.37 1982.92H1393.27V1990.03C1393.27 1991.1 1392.4 1991.97 1391.33 1991.97H1388.31C1387.24 1991.97 1386.37 1991.1 1386.37 1990.03V1982.92Z" fill="#242424"/>
<path d="M1579.5 1982.92H1586.4V1990.03C1586.4 1991.1 1585.53 1991.97 1584.46 1991.97H1581.44C1580.37 1991.97 1579.5 1991.1 1579.5 1990.03V1982.92Z" fill="#242424"/>
<path d="M1721.8 1982.92H1728.7V1990.03C1728.7 1991.1 1727.83 1991.97 1726.76 1991.97H1723.74C1722.67 1991.97 1721.8 1991.1 1721.8 1990.03V1982.92Z" fill="#242424"/>
<path d="M796.83 1982.92H803.727V1990.03C803.727 1991.1 802.859 1991.97 801.787 1991.97H798.771C797.699 1991.97 796.83 1991.1 796.83 1990.03V1982.92Z" fill="#242424"/>
<path d="M918.803 1982.92H925.7V1990.03C925.7 1991.1 924.831 1991.97 923.76 1991.97H920.743C919.672 1991.97 918.803 1991.1 918.803 1990.03V1982.92Z" fill="#242424"/>
<path d="M1111.93 1982.92H1118.83V1990.03C1118.83 1991.1 1117.96 1991.97 1116.89 1991.97H1113.87C1112.8 1991.97 1111.93 1991.1 1111.93 1990.03V1982.92Z" fill="#242424"/>
<path d="M1305.06 1982.92H1311.95V1990.03C1311.95 1991.1 1311.09 1991.97 1310.01 1991.97H1307C1305.93 1991.97 1305.06 1991.1 1305.06 1990.03V1982.92Z" fill="#242424"/>
<path d="M1498.18 1982.92H1505.08V1990.03C1505.08 1991.1 1504.21 1991.97 1503.14 1991.97H1500.12C1499.05 1991.97 1498.18 1991.1 1498.18 1990.03V1982.92Z" fill="#242424"/>
<path d="M1640.49 1982.92H1647.38V1990.03C1647.38 1991.1 1646.51 1991.97 1645.44 1991.97H1642.43C1641.36 1991.97 1640.49 1991.1 1640.49 1990.03V1982.92Z" fill="#242424"/>
<path d="M857.816 1982.92H864.714V1990.03C864.714 1991.1 863.845 1991.97 862.773 1991.97H859.757C858.685 1991.97 857.816 1991.1 857.816 1990.03V1982.92Z" fill="#242424"/>
<path d="M1050.94 1982.92H1057.84V1990.03C1057.84 1991.1 1056.97 1991.97 1055.9 1991.97H1052.88C1051.81 1991.97 1050.94 1991.1 1050.94 1990.03V1982.92Z" fill="#242424"/>
<path d="M1244.07 1982.92H1250.97V1990.03C1250.97 1991.1 1250.1 1991.97 1249.03 1991.97H1246.01C1244.94 1991.97 1244.07 1991.1 1244.07 1990.03V1982.92Z" fill="#242424"/>
<path d="M1437.2 1982.92H1444.09V1990.03C1444.09 1991.1 1443.23 1991.97 1442.15 1991.97H1439.14C1438.07 1991.97 1437.2 1991.1 1437.2 1990.03V1982.92Z" fill="#242424"/>
<path d="M979.791 1982.92H986.688V1990.03C986.688 1991.1 985.82 1991.97 984.748 1991.97H981.732C980.66 1991.97 979.791 1991.1 979.791 1990.03V1982.92Z" fill="#242424"/>
<path d="M1172.92 1982.92H1179.82V1990.03C1179.82 1991.1 1178.95 1991.97 1177.87 1991.97H1174.86C1173.79 1991.97 1172.92 1991.1 1172.92 1990.03V1982.92Z" fill="#242424"/>
<path d="M1366.04 1982.92H1372.94V1990.03C1372.94 1991.1 1372.07 1991.97 1371 1991.97H1367.99C1366.91 1991.97 1366.04 1991.1 1366.04 1990.03V1982.92Z" fill="#242424"/>
<path d="M1559.17 1982.92H1566.07V1990.03C1566.07 1991.1 1565.2 1991.97 1564.13 1991.97H1561.11C1560.04 1991.97 1559.17 1991.1 1559.17 1990.03V1982.92Z" fill="#242424"/>
<path d="M1701.47 1982.92H1708.37V1990.03C1708.37 1991.1 1707.5 1991.97 1706.43 1991.97H1703.42C1702.34 1991.97 1701.47 1991.1 1701.47 1990.03V1982.92Z" fill="#242424"/>
<path d="M827.324 1982.92H834.222V1990.03C834.222 1991.1 833.353 1991.97 832.281 1991.97H829.265C828.193 1991.97 827.324 1991.1 827.324 1990.03V1982.92Z" fill="#242424"/>
<path d="M949.299 1982.92H956.196V1990.03C956.196 1991.1 955.327 1991.97 954.256 1991.97H951.239C950.168 1991.97 949.299 1991.1 949.299 1990.03V1982.92Z" fill="#242424"/>
<path d="M1142.43 1982.92H1149.32V1990.03C1149.32 1991.1 1148.45 1991.97 1147.38 1991.97H1144.37C1143.29 1991.97 1142.43 1991.1 1142.43 1990.03V1982.92Z" fill="#242424"/>
<path d="M1335.55 1982.92H1342.45V1990.03C1342.45 1991.1 1341.58 1991.97 1340.51 1991.97H1337.49C1336.42 1991.97 1335.55 1991.1 1335.55 1990.03V1982.92Z" fill="#242424"/>
<path d="M1528.68 1982.92H1535.57V1990.03C1535.57 1991.1 1534.7 1991.97 1533.63 1991.97H1530.62C1529.54 1991.97 1528.68 1991.1 1528.68 1990.03V1982.92Z" fill="#242424"/>
<path d="M1670.98 1982.92H1677.88V1990.03C1677.88 1991.1 1677.01 1991.97 1675.94 1991.97H1672.92C1671.85 1991.97 1670.98 1991.1 1670.98 1990.03V1982.92Z" fill="#242424"/>
<path d="M888.312 1982.92H895.21V1990.03C895.21 1991.1 894.341 1991.97 893.269 1991.97H890.253C889.181 1991.97 888.312 1991.1 888.312 1990.03V1982.92Z" fill="#242424"/>
<path d="M1081.44 1982.92H1088.34V1990.03C1088.34 1991.1 1087.47 1991.97 1086.4 1991.97H1083.38C1082.31 1991.97 1081.44 1991.1 1081.44 1990.03V1982.92Z" fill="#242424"/>
<path d="M1274.56 1982.92H1281.46V1990.03C1281.46 1991.1 1280.59 1991.97 1279.52 1991.97H1276.5C1275.43 1991.97 1274.56 1991.1 1274.56 1990.03V1982.92Z" fill="#242424"/>
<path d="M1467.69 1982.92H1474.59V1990.03C1474.59 1991.1 1473.72 1991.97 1472.65 1991.97H1469.63C1468.56 1991.97 1467.69 1991.1 1467.69 1990.03V1982.92Z" fill="#242424"/>
<path d="M1610 1982.92H1616.89V1990.03C1616.89 1991.1 1616.02 1991.97 1614.95 1991.97H1611.94C1610.86 1991.97 1610 1991.1 1610 1990.03V1982.92Z" fill="#242424"/>
<path d="M1010.29 1982.92H1017.18V1990.03C1017.18 1991.1 1016.31 1991.97 1015.24 1991.97H1012.23C1011.15 1991.97 1010.29 1991.1 1010.29 1990.03V1982.92Z" fill="#242424"/>
<path d="M1203.41 1982.92H1210.31V1990.03C1210.31 1991.1 1209.44 1991.97 1208.37 1991.97H1205.35C1204.28 1991.97 1203.41 1991.1 1203.41 1990.03V1982.92Z" fill="#242424"/>
<path d="M1396.54 1982.92H1403.44V1990.03C1403.44 1991.1 1402.57 1991.97 1401.5 1991.97H1398.48C1397.41 1991.97 1396.54 1991.1 1396.54 1990.03V1982.92Z" fill="#242424"/>
<path d="M1589.66 1982.92H1596.56V1990.03C1596.56 1991.1 1595.69 1991.97 1594.62 1991.97H1591.6C1590.53 1991.97 1589.66 1991.1 1589.66 1990.03V1982.92Z" fill="#242424"/>
<path d="M806.996 1982.92H813.893V1990.03C813.893 1991.1 813.025 1991.97 811.953 1991.97H808.937C807.865 1991.97 806.996 1991.1 806.996 1990.03V1982.92Z" fill="#242424"/>
<path d="M928.969 1982.92H935.866V1990.03C935.866 1991.1 934.997 1991.97 933.926 1991.97H930.909C929.838 1991.97 928.969 1991.1 928.969 1990.03V1982.92Z" fill="#242424"/>
<path d="M1122.1 1982.92H1128.99V1990.03C1128.99 1991.1 1128.12 1991.97 1127.05 1991.97H1124.04C1122.96 1991.97 1122.1 1991.1 1122.1 1990.03V1982.92Z" fill="#242424"/>
<path d="M1315.22 1982.92H1322.12V1990.03C1322.12 1991.1 1321.25 1991.97 1320.18 1991.97H1317.16C1316.09 1991.97 1315.22 1991.1 1315.22 1990.03V1982.92Z" fill="#242424"/>
<path d="M1508.35 1982.92H1515.25V1990.03C1515.25 1991.1 1514.38 1991.97 1513.3 1991.97H1510.29C1509.22 1991.97 1508.35 1991.1 1508.35 1990.03V1982.92Z" fill="#242424"/>
<path d="M1650.65 1982.92H1657.55V1990.03C1657.55 1991.1 1656.68 1991.97 1655.61 1991.97H1652.59C1651.52 1991.97 1650.65 1991.1 1650.65 1990.03V1982.92Z" fill="#242424"/>
<path d="M867.982 1982.92H874.88V1990.03C874.88 1991.1 874.011 1991.97 872.939 1991.97H869.923C868.851 1991.97 867.982 1991.1 867.982 1990.03V1982.92Z" fill="#242424"/>
<path d="M1061.11 1982.92H1068.01V1990.03C1068.01 1991.1 1067.14 1991.97 1066.07 1991.97H1063.05C1061.98 1991.97 1061.11 1991.1 1061.11 1990.03V1982.92Z" fill="#242424"/>
<path d="M1254.23 1982.92H1261.13V1990.03C1261.13 1991.1 1260.26 1991.97 1259.19 1991.97H1256.17C1255.1 1991.97 1254.23 1991.1 1254.23 1990.03V1982.92Z" fill="#242424"/>
<path d="M1447.36 1982.92H1454.26V1990.03C1454.26 1991.1 1453.39 1991.97 1452.32 1991.97H1449.3C1448.23 1991.97 1447.36 1991.1 1447.36 1990.03V1982.92Z" fill="#242424"/>
<path d="M989.957 1982.92H996.854V1990.03C996.854 1991.1 995.986 1991.97 994.914 1991.97H991.898C990.826 1991.97 989.957 1991.1 989.957 1990.03V1982.92Z" fill="#242424"/>
<path d="M1183.08 1982.92H1189.98V1990.03C1189.98 1991.1 1189.11 1991.97 1188.04 1991.97H1185.02C1183.95 1991.97 1183.08 1991.1 1183.08 1990.03V1982.92Z" fill="#242424"/>
<path d="M1376.21 1982.92H1383.11V1990.03C1383.11 1991.1 1382.24 1991.97 1381.17 1991.97H1378.15C1377.08 1991.97 1376.21 1991.1 1376.21 1990.03V1982.92Z" fill="#242424"/>
<path d="M1569.33 1982.92H1576.23V1990.03C1576.23 1991.1 1575.36 1991.97 1574.29 1991.97H1571.27C1570.2 1991.97 1569.33 1991.1 1569.33 1990.03V1982.92Z" fill="#242424"/>
<path d="M1711.64 1982.92H1718.54V1990.03C1718.54 1991.1 1717.67 1991.97 1716.6 1991.97H1713.58C1712.51 1991.97 1711.64 1991.1 1711.64 1990.03V1982.92Z" fill="#242424"/>
<path d="M837.488 1982.92H844.386V1990.03C844.386 1991.1 843.517 1991.97 842.445 1991.97H839.429C838.357 1991.97 837.488 1991.1 837.488 1990.03V1982.92Z" fill="#242424"/>
<path d="M1030.62 1982.92H1037.51V1990.03C1037.51 1991.1 1036.64 1991.97 1035.57 1991.97H1032.56C1031.48 1991.97 1030.62 1991.1 1030.62 1990.03V1982.92Z" fill="#242424"/>
<path d="M1223.74 1982.92H1230.64V1990.03C1230.64 1991.1 1229.77 1991.97 1228.7 1991.97H1225.68C1224.61 1991.97 1223.74 1991.1 1223.74 1990.03V1982.92Z" fill="#242424"/>
<path d="M1416.87 1982.92H1423.77V1990.03C1423.77 1991.1 1422.9 1991.97 1421.83 1991.97H1418.81C1417.74 1991.97 1416.87 1991.1 1416.87 1990.03V1982.92Z" fill="#242424"/>
<path d="M959.461 1982.92H966.358V1990.03C966.358 1991.1 965.489 1991.97 964.418 1991.97H961.402C960.33 1991.97 959.461 1991.1 959.461 1990.03V1982.92Z" fill="#242424"/>
<path d="M1152.59 1982.92H1159.49V1990.03C1159.49 1991.1 1158.62 1991.97 1157.54 1991.97H1154.53C1153.46 1991.97 1152.59 1991.1 1152.59 1990.03V1982.92Z" fill="#242424"/>
<path d="M1345.71 1982.92H1352.61V1990.03C1352.61 1991.1 1351.74 1991.97 1350.67 1991.97H1347.66C1346.58 1991.97 1345.71 1991.1 1345.71 1990.03V1982.92Z" fill="#242424"/>
<path d="M1538.84 1982.92H1545.74V1990.03C1545.74 1991.1 1544.87 1991.97 1543.8 1991.97H1540.78C1539.71 1991.97 1538.84 1991.1 1538.84 1990.03V1982.92Z" fill="#242424"/>
<path d="M1681.14 1982.92H1688.04V1990.03C1688.04 1991.1 1687.17 1991.97 1686.1 1991.97H1683.09C1682.01 1991.97 1681.14 1991.1 1681.14 1990.03V1982.92Z" fill="#242424"/>
<path d="M898.475 1982.92H905.372V1990.03C905.372 1991.1 904.503 1991.97 903.431 1991.97H900.415C899.343 1991.97 898.475 1991.1 898.475 1990.03V1982.92Z" fill="#242424"/>
<path d="M1091.6 1982.92H1098.5V1990.03C1098.5 1991.1 1097.63 1991.97 1096.56 1991.97H1093.54C1092.47 1991.97 1091.6 1991.1 1091.6 1990.03V1982.92Z" fill="#242424"/>
<path d="M1284.73 1982.92H1291.63V1990.03C1291.63 1991.1 1290.76 1991.97 1289.69 1991.97H1286.67C1285.6 1991.97 1284.73 1991.1 1284.73 1990.03V1982.92Z" fill="#242424"/>
<path d="M1477.86 1982.92H1484.75V1990.03C1484.75 1991.1 1483.88 1991.97 1482.81 1991.97H1479.8C1478.72 1991.97 1477.86 1991.1 1477.86 1990.03V1982.92Z" fill="#242424"/>
<path d="M1620.16 1982.92H1627.06V1990.03C1627.06 1991.1 1626.19 1991.97 1625.12 1991.97H1622.1C1621.03 1991.97 1620.16 1991.1 1620.16 1990.03V1982.92Z" fill="#242424"/>
<path d="M1020.45 1982.92H1027.34V1990.03C1027.34 1991.1 1026.48 1991.97 1025.4 1991.97H1022.39C1021.32 1991.97 1020.45 1991.1 1020.45 1990.03V1982.92Z" fill="#242424"/>
<path d="M1213.57 1982.92H1220.47V1990.03C1220.47 1991.1 1219.6 1991.97 1218.53 1991.97H1215.51C1214.44 1991.97 1213.57 1991.1 1213.57 1990.03V1982.92Z" fill="#242424"/>
<path d="M1406.7 1982.92H1413.6V1990.03C1413.6 1991.1 1412.73 1991.97 1411.66 1991.97H1408.64C1407.57 1991.97 1406.7 1991.1 1406.7 1990.03V1982.92Z" fill="#242424"/>
<path d="M1599.83 1982.92H1606.73V1990.03C1606.73 1991.1 1605.86 1991.97 1604.79 1991.97H1601.77C1600.7 1991.97 1599.83 1991.1 1599.83 1990.03V1982.92Z" fill="#242424"/>
<path d="M1731.61 1982.92H1735.17V1990.19C1735.17 1991.17 1734.37 1991.97 1733.39 1991.97C1732.4 1991.97 1731.61 1991.17 1731.61 1990.19V1982.92Z" fill="#242424"/>
<rect x="0.48514" y="0.48514" width="2514.03" height="1597.97" rx="81.9887" fill="#303030" stroke="#303030" stroke-width="0.97028"/>
<rect x="40.6582" y="59.3569" width="2433.68" height="1480.23" fill="#D9D9D9"/>
<defs>
<filter id="filter0_f_33_14792" x="746.301" y="1972.23" width="43.3353" height="35.0541" filterUnits="userSpaceOnUse" color-interpolation-filters="sRGB">
<feFlood flood-opacity="0" result="BackgroundImageFix"/>
<feBlend mode="normal" in="SourceGraphic" in2="BackgroundImageFix" result="shape"/>
<feGaussianBlur stdDeviation="5.23032" result="effect1_foregroundBlur_33_14792"/>
</filter>
<filter id="filter1_f_33_14792" x="1718.64" y="1972.23" width="43.3353" height="35.0541" filterUnits="userSpaceOnUse" color-interpolation-filters="sRGB">
<feFlood flood-opacity="0" result="BackgroundImageFix"/>
<feBlend mode="normal" in="SourceGraphic" in2="BackgroundImageFix" result="shape"/>
<feGaussianBlur stdDeviation="5.23032" result="effect1_foregroundBlur_33_14792"/>
</filter>
<filter id="filter2_f_33_14792" x="206.431" y="1682.76" width="2043.78" height="526.426" filterUnits="userSpaceOnUse" color-interpolation-filters="sRGB">
<feFlood flood-opacity="0" result="BackgroundImageFix"/>
<feBlend mode="normal" in="SourceGraphic" in2="BackgroundImageFix" result="shape"/>
<feGaussianBlur stdDeviation="88.9154" result="effect1_foregroundBlur_33_14792"/>
</filter>
<filter id="filter3_f_33_14792" x="1725.98" y="1891.99" width="115.123" height="43.0391" filterUnits="userSpaceOnUse" color-interpolation-filters="sRGB">
<feFlood flood-opacity="0" result="BackgroundImageFix"/>
<feBlend mode="normal" in="SourceGraphic" in2="BackgroundImageFix" result="shape"/>
<feGaussianBlur stdDeviation="9.03419" result="effect1_foregroundBlur_33_14792"/>
</filter>
<filter id="filter4_f_33_14792" x="693.458" y="1890.12" width="120.829" height="48.7449" filterUnits="userSpaceOnUse" color-interpolation-filters="sRGB">
<feFlood flood-opacity="0" result="BackgroundImageFix"/>
<feBlend mode="normal" in="SourceGraphic" in2="BackgroundImageFix" result="shape"/>
<feGaussianBlur stdDeviation="10.4606" result="effect1_foregroundBlur_33_14792"/>
</filter>
<filter id="filter5_f_33_14792" x="540.911" y="1863.3" width="310.642" height="171.743" filterUnits="userSpaceOnUse" color-interpolation-filters="sRGB">
<feFlood flood-opacity="0" result="BackgroundImageFix"/>
<feBlend mode="normal" in="SourceGraphic" in2="BackgroundImageFix" result="shape"/>
<feGaussianBlur stdDeviation="16.6419" result="effect1_foregroundBlur_33_14792"/>
</filter>
<filter id="filter6_f_33_14792" x="1675.18" y="1863.3" width="310.642" height="171.743" filterUnits="userSpaceOnUse" color-interpolation-filters="sRGB">
<feFlood flood-opacity="0" result="BackgroundImageFix"/>
<feBlend mode="normal" in="SourceGraphic" in2="BackgroundImageFix" result="shape"/>
<feGaussianBlur stdDeviation="16.6419" result="effect1_foregroundBlur_33_14792"/>
</filter>
<filter id="filter7_if_33_14792" x="672.817" y="1591.46" width="225.425" height="326.503" filterUnits="userSpaceOnUse" color-interpolation-filters="sRGB">
<feFlood flood-opacity="0" result="BackgroundImageFix"/>
<feBlend mode="normal" in="SourceGraphic" in2="BackgroundImageFix" result="shape"/>
<feColorMatrix in="SourceAlpha" type="matrix" values="0 0 0 0 0 0 0 0 0 0 0 0 0 0 0 0 0 0 127 0" result="hardAlpha"/>
<feOffset dy="2.91084"/>
<feGaussianBlur stdDeviation="2.91084"/>
<feComposite in2="hardAlpha" operator="arithmetic" k2="-1" k3="1"/>
<feColorMatrix type="matrix" values="0 0 0 0 0 0 0 0 0 0 0 0 0 0 0 0 0 0 0.25 0"/>
<feBlend mode="normal" in2="shape" result="effect1_innerShadow_33_14792"/>
<feGaussianBlur stdDeviation="3.74103" result="effect2_foregroundBlur_33_14792"/>
</filter>
<filter id="filter8_i_33_14792" x="679.329" y="1598.94" width="213.337" height="315.42" filterUnits="userSpaceOnUse" color-interpolation-filters="sRGB">
<feFlood flood-opacity="0" result="BackgroundImageFix"/>
<feBlend mode="normal" in="SourceGraphic" in2="BackgroundImageFix" result="shape"/>
<feColorMatrix in="SourceAlpha" type="matrix" values="0 0 0 0 0 0 0 0 0 0 0 0 0 0 0 0 0 0 127 0" result="hardAlpha"/>
<feOffset dx="-0.97028" dy="3.88112"/>
<feGaussianBlur stdDeviation="4.36626"/>
<feComposite in2="hardAlpha" operator="arithmetic" k2="-1" k3="1"/>
<feColorMatrix type="matrix" values="0 0 0 0 0 0 0 0 0 0 0 0 0 0 0 0 0 0 0.25 0"/>
<feBlend mode="normal" in2="shape" result="effect1_innerShadow_33_14792"/>
</filter>
<filter id="filter9_f_33_14792" x="677.388" y="1596.03" width="219.277" height="317.36" filterUnits="userSpaceOnUse" color-interpolation-filters="sRGB">
<feFlood flood-opacity="0" result="BackgroundImageFix"/>
<feBlend mode="normal" in="SourceGraphic" in2="BackgroundImageFix" result="shape"/>
<feGaussianBlur stdDeviation="1.45542" result="effect1_foregroundBlur_33_14792"/>
</filter>
<filter id="filter10_if_33_14792" x="1620.39" y="1591.46" width="225.425" height="326.503" filterUnits="userSpaceOnUse" color-interpolation-filters="sRGB">
<feFlood flood-opacity="0" result="BackgroundImageFix"/>
<feBlend mode="normal" in="SourceGraphic" in2="BackgroundImageFix" result="shape"/>
<feColorMatrix in="SourceAlpha" type="matrix" values="0 0 0 0 0 0 0 0 0 0 0 0 0 0 0 0 0 0 127 0" result="hardAlpha"/>
<feOffset dy="2.91084"/>
<feGaussianBlur stdDeviation="2.91084"/>
<feComposite in2="hardAlpha" operator="arithmetic" k2="-1" k3="1"/>
<feColorMatrix type="matrix" values="0 0 0 0 0 0 0 0 0 0 0 0 0 0 0 0 0 0 0.25 0"/>
<feBlend mode="normal" in2="shape" result="effect1_innerShadow_33_14792"/>
<feGaussianBlur stdDeviation="3.74103" result="effect2_foregroundBlur_33_14792"/>
</filter>
<filter id="filter11_i_33_14792" x="1624.99" y="1598.94" width="213.337" height="315.42" filterUnits="userSpaceOnUse" color-interpolation-filters="sRGB">
<feFlood flood-opacity="0" result="BackgroundImageFix"/>
<feBlend mode="normal" in="SourceGraphic" in2="BackgroundImageFix" result="shape"/>
<feColorMatrix in="SourceAlpha" type="matrix" values="0 0 0 0 0 0 0 0 0 0 0 0 0 0 0 0 0 0 127 0" result="hardAlpha"/>
<feOffset dx="-0.97028" dy="3.88112"/>
<feGaussianBlur stdDeviation="4.36626"/>
<feComposite in2="hardAlpha" operator="arithmetic" k2="-1" k3="1"/>
<feColorMatrix type="matrix" values="0 0 0 0 0 0 0 0 0 0 0 0 0 0 0 0 0 0 0.25 0"/>
<feBlend mode="normal" in2="shape" result="effect1_innerShadow_33_14792"/>
</filter>
<filter id="filter12_f_33_14792" x="1621.96" y="1596.03" width="219.277" height="317.36" filterUnits="userSpaceOnUse" color-interpolation-filters="sRGB">
<feFlood flood-opacity="0" result="BackgroundImageFix"/>
<feBlend mode="normal" in="SourceGraphic" in2="BackgroundImageFix" result="shape"/>
<feGaussianBlur stdDeviation="1.45542" result="effect1_foregroundBlur_33_14792"/>
</filter>
<filter id="filter13_f_33_14792" x="670.936" y="1584.89" width="83.7891" height="27.1094" filterUnits="userSpaceOnUse" color-interpolation-filters="sRGB">
<feFlood flood-opacity="0" result="BackgroundImageFix"/>
<feBlend mode="normal" in="SourceGraphic" in2="BackgroundImageFix" result="shape"/>
<feGaussianBlur stdDeviation="4.67629" result="effect1_foregroundBlur_33_14792"/>
</filter>
<filter id="filter14_f_33_14792" x="1763.37" y="1584.89" width="83.7891" height="27.1094" filterUnits="userSpaceOnUse" color-interpolation-filters="sRGB">
<feFlood flood-opacity="0" result="BackgroundImageFix"/>
<feBlend mode="normal" in="SourceGraphic" in2="BackgroundImageFix" result="shape"/>
<feGaussianBlur stdDeviation="4.67629" result="effect1_foregroundBlur_33_14792"/>
</filter>
<filter id="filter15_i_33_14792" x="778.314" y="1982.92" width="958.371" height="21.5665" filterUnits="userSpaceOnUse" color-interpolation-filters="sRGB">
<feFlood flood-opacity="0" result="BackgroundImageFix"/>
<feBlend mode="normal" in="SourceGraphic" in2="BackgroundImageFix" result="shape"/>
<feColorMatrix in="SourceAlpha" type="matrix" values="0 0 0 0 0 0 0 0 0 0 0 0 0 0 0 0 0 0 127 0" result="hardAlpha"/>
<feOffset dy="7.48206"/>
<feGaussianBlur stdDeviation="3.74103"/>
<feComposite in2="hardAlpha" operator="arithmetic" k2="-1" k3="1"/>
<feColorMatrix type="matrix" values="0 0 0 0 0 0 0 0 0 0 0 0 0 0 0 0 0 0 0.9 0"/>
<feBlend mode="normal" in2="shape" result="effect1_innerShadow_33_14792"/>
</filter>
<linearGradient id="paint0_linear_33_14792" x1="761.921" y1="1992.72" x2="805.159" y2="1959.57" gradientUnits="userSpaceOnUse">
<stop stop-opacity="0"/>
<stop offset="0.0001" stop-opacity="0"/>
<stop offset="0.091658" stop-opacity="0.24"/>
<stop offset="0.26722"/>
<stop offset="1" stop-color="#A4A4A4"/>
</linearGradient>
<linearGradient id="paint1_linear_33_14792" x1="1746.36" y1="1992.72" x2="1703.12" y2="1959.57" gradientUnits="userSpaceOnUse">
<stop stop-opacity="0"/>
<stop offset="0.0001" stop-opacity="0"/>
<stop offset="0.091658" stop-opacity="0.24"/>
<stop offset="0.26722"/>
<stop offset="1" stop-color="#A4A4A4"/>
</linearGradient>
<linearGradient id="paint2_linear_33_14792" x1="369.657" y1="1945.97" x2="2047.58" y2="1945.97" gradientUnits="userSpaceOnUse">
<stop stop-color="#3D3D3D" stop-opacity="0"/>
<stop offset="0.221585" stop-color="#3D3D3D" stop-opacity="0.64"/>
<stop offset="0.799723" stop-color="#3D3D3D" stop-opacity="0.89"/>
<stop offset="1" stop-color="#3D3D3D" stop-opacity="0"/>
</linearGradient>
<linearGradient id="paint3_linear_33_14792" x1="1715.36" y1="1906.61" x2="1813.71" y2="1919.25" gradientUnits="userSpaceOnUse">
<stop/>
<stop offset="0.69481" stop-color="#E6E6E6" stop-opacity="0.40462"/>
<stop offset="1" stop-opacity="0"/>
</linearGradient>
<linearGradient id="paint4_linear_33_14792" x1="822.047" y1="1907.59" x2="723.701" y2="1920.24" gradientUnits="userSpaceOnUse">
<stop/>
<stop offset="0.69481" stop-color="#E6E6E6" stop-opacity="0.40462"/>
<stop offset="1" stop-opacity="0"/>
</linearGradient>
<linearGradient id="paint5_linear_33_14792" x1="1328.48" y1="1941.28" x2="554.287" y2="1950.52" gradientUnits="userSpaceOnUse">
<stop/>
<stop offset="1" stop-opacity="0"/>
</linearGradient>
<linearGradient id="paint6_linear_33_14792" x1="1198.26" y1="1941.28" x2="1972.45" y2="1950.52" gradientUnits="userSpaceOnUse">
<stop/>
<stop offset="1" stop-opacity="0"/>
</linearGradient>
<linearGradient id="paint7_linear_33_14792" x1="711.882" y1="1835.03" x2="759.423" y2="1818.77" gradientUnits="userSpaceOnUse">
<stop stop-color="#837676"/>
<stop offset="0.0625" stop-color="#898989" stop-opacity="0.966311"/>
<stop offset="0.90905" stop-color="#BEBEBE" stop-opacity="0.51"/>
</linearGradient>
<linearGradient id="paint8_linear_33_14792" x1="1806.75" y1="1835.03" x2="1759.21" y2="1818.77" gradientUnits="userSpaceOnUse">
<stop stop-color="#837676"/>
<stop offset="0.0625" stop-color="#898989" stop-opacity="0.966311"/>
<stop offset="0.90905" stop-color="#BEBEBE" stop-opacity="0.51"/>
</linearGradient>
<linearGradient id="paint9_linear_33_14792" x1="757.277" y1="1935.58" x2="1756.64" y2="1935.58" gradientUnits="userSpaceOnUse">
<stop/>
<stop offset="0.0546218" stop-color="#535353" stop-opacity="0.945378"/>
<stop offset="0.502801" stop-color="#212020" stop-opacity="0.76"/>
<stop offset="0.939776" stop-color="#535353"/>
<stop offset="1"/>
</linearGradient>
<linearGradient id="paint10_linear_33_14792" x1="1257.14" y1="1815.24" x2="1257.14" y2="1882.65" gradientUnits="userSpaceOnUse">
<stop stop-color="#1B1B1B"/>
<stop offset="0.512438" stop-color="#393434"/>
<stop offset="1" stop-color="#292929"/>
</linearGradient>
</defs>
</svg>
