<svg width="134" height="134" viewBox="0 0 134 134" fill="none" xmlns="http://www.w3.org/2000/svg">
<path d="M110.042 31.0216C110.042 26.5989 106.458 23.0278 102.052 23.0278C97.6455 23.0278 94.0579 26.5989 94.0579 31.0216C94.0579 35.428 97.6455 38.999 102.052 38.999C106.458 38.999 110.042 35.428 110.042 31.0216" fill="url(#paint0_linear_70_2139)"/>
<path d="M120.69 93.4198C120.394 99.9076 119.309 103.433 118.408 105.774C117.198 108.878 115.754 111.098 113.413 113.426C111.098 115.754 108.878 117.194 105.774 118.391C103.433 119.305 99.8946 120.393 93.407 120.703C86.3931 121.012 84.3148 121.078 66.5285 121.078C48.7587 121.078 46.6639 121.012 39.65 120.703C33.1624 120.393 29.6406 119.305 27.2992 118.391C24.1787 117.194 21.9757 115.754 19.6476 113.426C17.3029 111.098 15.8595 108.878 14.6658 105.774C13.7647 103.433 12.6632 99.9076 12.3836 93.4198C12.0418 86.4059 11.9791 84.2948 11.9791 66.5448C11.9791 48.7584 12.0418 46.6636 12.3836 39.6497C12.6632 33.1621 13.7647 29.6404 14.6658 27.2792C15.8595 24.1785 17.3029 21.9719 19.6476 19.6438C21.9757 17.3192 24.1787 15.8755 27.2992 14.6655C29.6406 13.7481 33.1624 12.6761 39.65 12.367C46.6639 12.0578 48.7587 11.9789 66.5285 11.9789C84.3148 11.9789 86.3931 12.0578 93.407 12.367C99.8946 12.6761 103.433 13.7481 105.774 14.6655C108.878 15.8755 111.098 17.3192 113.413 19.6438C115.754 21.9719 117.198 24.1785 118.408 27.2792C119.309 29.6404 120.394 33.1621 120.69 39.6497C121.015 46.6636 121.094 48.7584 121.094 66.5448C121.094 84.2948 121.015 86.4059 120.69 93.4198V93.4198ZM132.669 39.104C132.343 32.0144 131.225 27.1707 129.565 22.952C127.875 18.5752 125.609 14.8661 121.9 11.1569C118.207 7.46422 114.498 5.19851 110.121 3.48869C105.886 1.84447 101.059 0.713212 93.9658 0.404196C86.873 0.0621324 84.6075 -0.000272731 66.5285 -0.000272731C48.466 -0.000272731 46.184 0.0621324 39.0912 0.404196C32.0146 0.713212 27.1907 1.84447 22.9358 3.48869C18.5755 5.19851 14.8663 7.46422 11.1737 11.1569C7.46448 14.8661 5.19877 18.5752 3.49215 22.952C1.84793 27.1707 0.729998 32.0144 0.387935 39.104C0.0789187 46.1968 0 48.4657 0 66.5448C0 84.6073 0.0789187 86.8727 0.387935 93.9656C0.729998 101.042 1.84793 105.882 3.49215 110.121C5.19877 114.481 7.46448 118.207 11.1737 121.9C14.8663 125.592 18.5755 127.874 22.9358 129.581C27.1907 131.225 32.0146 132.343 39.0912 132.669C46.184 132.994 48.466 133.073 66.5285 133.073C84.6075 133.073 86.873 132.994 93.9658 132.669C101.059 132.343 105.886 131.225 110.121 129.581C114.498 127.874 118.207 125.592 121.9 121.9C125.609 118.207 127.875 114.481 129.565 110.121C131.225 105.882 132.343 101.042 132.669 93.9656C132.995 86.8727 133.073 84.6073 133.073 66.5448C133.073 48.4657 132.995 46.1968 132.669 39.104V39.104Z" fill="url(#paint1_linear_70_2139)"/>
<path d="M66.5286 88.7045C54.2863 88.7045 44.3524 78.7869 44.3524 66.5447C44.3524 54.2827 54.2863 44.3522 66.5286 44.3522C78.7743 44.3522 88.7213 54.2827 88.7213 66.5447C88.7213 78.7869 78.7743 88.7045 66.5286 88.7045V88.7045ZM66.5286 32.3566C47.6571 32.3566 32.3733 47.6732 32.3733 66.5447C32.3733 85.3998 47.6571 100.7 66.5286 100.7C85.4 100.7 100.7 85.3998 100.7 66.5447C100.7 47.6732 85.4 32.3566 66.5286 32.3566Z" fill="url(#paint2_linear_70_2139)"/>
<defs>
<linearGradient id="paint0_linear_70_2139" x1="1.2003" y1="131.697" x2="121.99" y2="10.9084" gradientUnits="userSpaceOnUse">
<stop stop-color="#FFD521"/>
<stop offset="0.05" stop-color="#FFD521"/>
<stop offset="0.501119" stop-color="#F50000"/>
<stop offset="0.95" stop-color="#B900B4"/>
<stop offset="0.950079" stop-color="#B900B4"/>
<stop offset="1" stop-color="#B900B4"/>
</linearGradient>
<linearGradient id="paint1_linear_70_2139" x1="1.2003" y1="131.863" x2="122.089" y2="10.9744" gradientUnits="userSpaceOnUse">
<stop stop-color="#FFD521"/>
<stop offset="0.05" stop-color="#FFD521"/>
<stop offset="0.501119" stop-color="#F50000"/>
<stop offset="0.95" stop-color="#B900B4"/>
<stop offset="0.950079" stop-color="#B900B4"/>
<stop offset="1" stop-color="#B900B4"/>
</linearGradient>
<linearGradient id="paint2_linear_70_2139" x1="1.23173" y1="131.866" x2="122.091" y2="11.0068" gradientUnits="userSpaceOnUse">
<stop stop-color="#FFD521"/>
<stop offset="0.05" stop-color="#FFD521"/>
<stop offset="0.501119" stop-color="#F50000"/>
<stop offset="0.95" stop-color="#B900B4"/>
<stop offset="0.950079" stop-color="#B900B4"/>
<stop offset="1" stop-color="#B900B4"/>
</linearGradient>
</defs>
</svg>
