<svg width="638" height="410" viewBox="0 0 638 410" fill="none" xmlns="http://www.w3.org/2000/svg">
<path d="M64 109C77.1329 64.4868 168 55 168 55C168 55 221.113 57.5829 230 83C203.432 143.859 64 191 155 184C246 177 147.349 269.583 236 232C314.375 202.94 339 171 368 140C397 109 537 79 468 118C399 157 515.646 159.775 501 191C423.209 203.691 333 250 368 287C403 324 169.217 341.07 342 345C483.56 376.667 491.193 328.292 533 268C528.053 217.131 537.922 208.596 573 221" stroke="#16BDF1" stroke-width="12"/>
<circle cx="531" cy="271" r="5" fill="#DCC819"/>
<circle cx="426" cy="355" r="5" fill="#DCC819"/>
<circle cx="297" cy="330" r="5" fill="#DCC819"/>
<circle cx="420" cy="215" r="5" fill="#DCC819"/>
<circle cx="436" cy="107" r="5" fill="#DCC819"/>
<circle cx="324" cy="183" r="5" fill="#DCC819"/>
<circle cx="239" cy="231" r="5" fill="#DCC819"/>
<circle cx="171" cy="143" r="5" fill="#DCC819"/>
<circle cx="80" cy="86" r="5" fill="#DCC819"/>
</svg>
