<svg width="27" height="33" viewBox="0 0 27 33" fill="none" xmlns="http://www.w3.org/2000/svg">
<path d="M13.3301 15.9102C14.8134 15.9102 16.2635 15.4703 17.4969 14.6462C18.7302 13.8221 19.6915 12.6507 20.2592 11.2803C20.8268 9.90984 20.9754 8.40184 20.686 6.94699C20.3966 5.49213 19.6823 4.15576 18.6334 3.10687C17.5845 2.05797 16.2481 1.34366 14.7933 1.05427C13.3384 0.764882 11.8304 0.913402 10.46 1.48106C9.08952 2.04872 7.91817 3.01002 7.09406 4.24339C6.26994 5.47676 5.83008 6.92681 5.83008 8.41017C5.83008 10.3993 6.62027 12.3069 8.02679 13.7135C9.43332 15.12 11.341 15.9102 13.3301 15.9102ZM13.3301 2.91017C14.4179 2.91017 15.4813 3.23273 16.3857 3.83708C17.2902 4.44143 17.9952 5.30041 18.4114 6.3054C18.8277 7.31039 18.9366 8.41627 18.7244 9.48317C18.5122 10.5501 17.9884 11.5301 17.2192 12.2993C16.45 13.0684 15.47 13.5923 14.4031 13.8045C13.3362 14.0167 12.2303 13.9078 11.2253 13.4915C10.2203 13.0752 9.36137 12.3703 8.75702 11.4658C8.15267 10.5613 7.83008 9.49796 7.83008 8.41017C7.83008 6.95148 8.40956 5.55253 9.44101 4.52108C10.4725 3.48963 11.8714 2.91017 13.3301 2.91017Z" fill="white"/>
<path d="M13.3301 16.8203C9.88226 16.8203 6.57567 18.1899 4.1377 20.6279C1.69972 23.0659 0.330078 26.3725 0.330078 29.8203V32.0003C0.330078 32.2655 0.435449 32.5199 0.622986 32.7074C0.810522 32.8949 1.06486 33.0003 1.33008 33.0003C1.59529 33.0003 1.84966 32.8949 2.0372 32.7074C2.22474 32.5199 2.33008 32.2655 2.33008 32.0003V29.8203C2.33008 26.9029 3.48901 24.105 5.55191 22.0421C7.61481 19.9792 10.4127 18.8203 13.3301 18.8203C16.2475 18.8203 19.0454 19.9792 21.1083 22.0421C23.1712 24.105 24.3301 26.9029 24.3301 29.8203V32.0003C24.3301 32.2655 24.4354 32.5199 24.623 32.7074C24.8105 32.8949 25.0649 33.0003 25.3301 33.0003C25.5953 33.0003 25.8497 32.8949 26.0372 32.7074C26.2247 32.5199 26.3301 32.2655 26.3301 32.0003V29.8203C26.3301 26.3725 24.9605 23.0659 22.5225 20.6279C20.0845 18.1899 16.7779 16.8203 13.3301 16.8203V16.8203Z" fill="white"/>
</svg>
